<svg xmlns="http://www.w3.org/2000/svg" xmlns:xlink="http://www.w3.org/1999/xlink" viewBox="0 0 1024 1024"><defs><style>.cls-1{fill:url(#New_Gradient_Swatch_copy);}</style><linearGradient id="New_Gradient_Swatch_copy" y1="512" x2="1024" y2="512" gradientUnits="userSpaceOnUse"><stop offset="0.02" stop-color="#434342"/><stop offset="1" stop-color="#010101"/></linearGradient></defs><g id="Layer_2" data-name="Layer 2"><g id="Layer_1-2" data-name="Layer 1"><path class="cls-1" d="M978.05,35a11,11,0,0,1,11,11v932.1a11,11,0,0,1-11,11H46a11,11,0,0,1-11-11V46A11,11,0,0,1,46,35h932.1m0-35H46A46,46,0,0,0,0,46v932.1a46,46,0,0,0,46,46h932.1a46,46,0,0,0,46-46V46A46,46,0,0,0,978.05,0Z"/></g></g></svg>